<?xml version="1.0" encoding="UTF-8"?>
<svg version="1.1" viewBox="0 0 2048 1822" width="182" height="162" xmlns="http://www.w3.org/2000/svg">
<path transform="translate(981,541)" d="m0 0h67l36 2 23 6 20 8 14 7 11 8 10 9 7 7 7 10 9 17 5 15 1 7v11l-3 15-7 17-8 14-9 12-7 7-5 6-14 10-21 10-18 8-16 8-21 12-17 12-11 9-11 10-8 10-8 13-8 19-9 29-10 40-12 62-5 32v15l5 4 15 8 13 4 24 4 10 1h37l19-3 15-4 16-6 20-10 19-14 12-11 1-2h2l2-4 9-12 10-17 8-19 4-16 4-29v-30l-4-25-4-15-6-16-9-16-11-14-7-9-1-5h7l13 5 14 11 14 14 10 14 8 16 5 19 2 18v34l-3 22-4 17-7 17-10 18-8 11-11 12-11 11-16 12-20 12-16 8-18 8-28 8-22 4-11 1h-25l-17-3-23-6-25-8-6-3-3 11-6 18-10 24-13 24-12 18-8 11h8l56 14 38 10 34 7 40 7 26 3h21l23-3 19-5 16-7 11-7 10-9 9-9 9-11 8-8 2 1-2 7-11 18-9 10-7 7-18 12-16 8-21 7-24 6-13 2h-36l-24-3-39-8-79-20-46-10h-5l-7 6-23 15-15 8-11 3h-12l-12-4-10-9-2-6 1-9 5-10 9-8 14-7 11-2h40l8-6 11-15 8-15 8-20 8-26 6-23 1-6v-10l-14-12-15-14-19-19-13-17-12-21-8-18-6-19-3-20v-27l3-24 4-10 6-6 4 1 1 4-4 24v24l5 34 5 16 9 19 12 19 11 14 7 7 7 8 8 7 14 12 4 2 1-15 8-45 7-35 7-26 7-21 9-20 8-14 7-10 9-10 17-14 21-14 16-10 41-23 22-13 11-9 8-8 9-12 8-14 5-16 2-9 1-15-2-16-6-20-6-13-6-10-8-10-11-10-10-5-15-4-21-4-19-2h-76l-20 1-6 1 5 9v96l-1 74-3 46-4 39-1 14-3 3-11 3h-5l-2-5-1-27-1-86-1-154-4-4-12-6-13-6-1-7 64-1zm-142 628m-5 1-19 1-6 2 2 2 6 3h7l7-3 8-4v-1z" fill="#FEFEFE"/>
<path transform="translate(1369,191)" d="m0 0 6 2 3 3 1 4-1 22-6 51 12-9 9-9 18-12 20-11h6l3 3v9l-3 10-3 1-2 5-8 16-9 12-8 13-6 9-3 1-4-5 2-10 11-23 9-14 1-5-21 14-11 7-11 9-5 5-5-1-5-5v-29l1-19-2-3-5 3-12 23-7 11-5-1-1-5 5-13 12-22 10-13 6-12 4-9z" fill="#FEFEFE"/>
<path transform="translate(210,868)" d="m0 0h71l7 3 4 9 1 17-2 12-4 9-7 10-9 10-8 5-10 2h-12l-10-2-14-12-9-11-4-9-2-10v-13l2-16 2-3zm16 18-11 1-5 3v13l3 8 9 10 10 7 9 4h11l8-4 12-11 8-13 2-6-1-7-5-3-36-2z" fill="#FEFEFE"/>
<path transform="translate(864,125)" d="m0 0h15l8 3 6 5 6 12 2 7-1 7-5 4 2 1v-2l4 2 6 8 3 8v13l-4 7-9 8-10 4-12 2h-22l-4-2-3-7-7-40-5-25 2-7 3-3 11-3zm-5 9-5 4-1 2v15l2 9 1 2 9-1 23-8-2-9-5-8-6-5-2-1zm29 35-32 8 1 10 5 13 5 4h12l10-5 7-8 1-3v-9l-6-10z" fill="#FEFEFE"/>
<path transform="translate(1167,126)" d="m0 0h16l8 4 9 7 7 7 5 9 4 11v8l-5-2-10-10-9-12-4-5-7-5-6-1-10 5-9 8-8 13-3 8-1 11 4 13 2 4 4 2 8 6 10 4 8-1 8-7 3-4-1-5-5-5-7-5-1-6 3-5 6 1 14 7 11 3 1 3-2 10-6 10-11 11-10 5-3 1h-7l-10-3-11-7-13-13-6-10-3-8-1-6 4-13 6-12 11-14 8-7z" fill="#FEFEFE"/>
<path transform="translate(1052,113)" d="m0 0h26l10 3 9 8 5 9 1 10-3 7-5 5-11 8h-2v8l5 9 11 12 4 7v5h-7l-8-3-4-5-8-15-5-5-11-9-2-2-5 13-2 16-3 5-2 1h-6l-3-4v-49l2-17 4-9 5-6zm11 7-6 5-2 7v11l2 9 4 5 9 3 7-1 7-6 5-8v-8l-6-9-6-5-7-3z" fill="#FEFEFE"/>
<path transform="translate(356,465)" d="m0 0h10l13 5 11 6 10 9 10 14 4 9v8l-6 12-11 12-7 8-9 7-8 4h-8l-14-5-11-7-11-11-6-10-5-12-1-9 3-7 7-9 11-11 4-5 11-7zm-1 14-11 4-5 4-6 10-2 6v11l6 12 10 10 10 5 7 2h14l10-4 6-7 4-8 1-9-2-9-9-14-9-8-9-4-5-1z" fill="#FEFEFE"/>
<path transform="translate(1713,1149)" d="m0 0 5 1 16 15 11 12 4 2h9l9-4 6-4h7l1 1-1 10-3 6-4 3h-24l-8 3-6 10-2 5 11 5 13 5 7 5 1 2v6l-3 3-6-1-33-13-21-9-16-8-8-5 1-6 6-9 7-13 9-11 7-7zm-4 18-6 4-9 17 2 4 9 7 9 4 9 1 8-17-1-5-8-10-4-4z" fill="#FEFEFE"/>
<path transform="translate(338,1263)" d="m0 0h26l14 2 5 3-3 7-12 14-11 12-10 11-11 14-8 10-7 8-4 1v-10l10-15 1-5-2-8-7-7-8-16v-2l-18-1-9-4-2-3v-6h16l22-2 8-2zm17 12 1 3 3-3zm-3 3-6 2h-1l-6 1v3h-2v-3l-9 1-2 1 1 5 5 6h5l14-12 4-4z" fill="#FEFEFE"/>
<path transform="translate(1364,1554)" d="m0 0h11l9 5 9 7 9 9 10 16 3 8 1 10-4 8-9 10-13 13-10 7-9 3-11-2-14-7-10-9-8-13-4-13-1-13 4-9 6-8 13-13 12-7zm-1 12-10 4-10 9-5 8-1 4v15l4 10 9 12 11 7 11 3 9-1 9-6 5-6 4-10v-16l-7-14-9-10-10-7-5-2z" fill="#FEFEFE"/>
<path transform="translate(491,306)" d="m0 0h7l8 6 7 8 4 9 1 6v9l5 5 10 4 15 4 3 3 1 6-1 2-14 3-4 1-10-8-6-5-5 2-3 2-7-1-8-1-1 5 6 11 13 14 2 6-4 5-5 1-4-2-12-17-9-11-11-12-15-15-4-6 1-7 4-5 19-12 15-9zm-2 15-5 2-10 3-6 7 1 10 8 9 11 9 3 2 9-14 4-5 2-8-4-8-7-6z" fill="#FEFEFE"/>
<path transform="translate(1562,338)" d="m0 0h9l9 4 10 8 7 10 6 13v7l-6 5h-5l-4-7-4-13-6-9-8-7-3-1-4 4v17l3 15 7 14 1 4v8l-7 9-8 7-2 1h-15l-7-3-10-9-6-8-6-13 1-10 6-11 4-3 4 1 1 1-1 19 2 9 4 6 8 7 9 1 2-2v-12l-4-22-5-12v-9l4-8 8-8z" fill="#FEFEFE"/>
<path transform="translate(266,1052)" d="m0 0h7l10 3 11 7 10 9 8 12 3 10-1 11-4 8-8 10-12 12-14 9-6 2h-7l-13-5-10-7-11-11-8-14-2-6v-7l5-12 7-10 7-8 14-9 8-3zm-6 14-9 4-9 6-8 9-5 9v9l4 8 4 5 11 8 16 4h9l11-4 10-9 7-13 1-4v-10l-5-9-9-8-8-4-4-1z" fill="#FEFEFE"/>
<path transform="translate(1759,1013)" d="m0 0h12l9 2 12 7 10 9 5 6 4 9 1 5-1 21-3 16-4 5-18-2-28-4-20-6-16-4-3-2v-9l3-17 7-13 8-10 9-8 8-4zm1 12-10 5-6 5-9 13-4 8-1 9 4 3 29 4 24 8h7l5-2 2-2 1-4v-19l-6-10-4-5-13-9-10-4z" fill="#FEFEFE"/>
<path transform="translate(679,179)" d="m0 0 5 2 4 5 8 16 13 24 11 23v7l-2 1h-15l-13-4-19-9-20-8-8-1 1 6 13 28 5 12 1 3v8l-4-2-6-10-10-18-9-16-8-18-6-11v-5l10 1 16 4 16 7 39 13-11-23-11-22-2-7v-5z" fill="#FEFEFE"/>
<path transform="translate(417,382)" d="m0 0h8l8 3 5 5 6 7 4 8v5l2 5 16 3 11 2 4 2-1 6-9 7-6 2-6-2-24-1-11-3-1-3 7-12 3-3h2l-7-13-5-6-7-1-12 6-7 5-3 6 2 5 10 10 10 6 9 7 6 8 14 14 3 7-4 4-6-2-9-6-13-10-12-11-10-9-8-7-4-6 1-7 3-5 7-7 6-8 11-8z" fill="#FEFEFE"/>
<path transform="translate(1504,281)" d="m0 0 6 1 2 4-1 7-4 25-5 20-3 7-5 21-6 9-8-3-3-3-1-5 6-10 2-9-3-7-21-12-2-2h-13l-9 4h-5l-2-2 1-7 7-6 12-7 21-10 12-6 16-7zm-14 18-13 5-9 7 4 9 4 5 7 2 3-3 8-16 1-6-2-3z" fill="#FEFEFE"/>
<path transform="translate(813,1621)" d="m0 0h17l10 3 10 6 10 10 7 14 1 3v15l-4 10-8 10-10 10-7 5-14 3h-8l-10-2-10-6-7-7-8-13-4-8-1-10 3-10 8-14 12-13 9-5zm5 8-8 4-9 8-5 10-2 9v19l3 10 6 7 7 4 14 2 10-2 8-6 6-8 5-11 1-3v-16l-3-10-6-8-7-6-8-3z" fill="#FEFEFE"/>
<path transform="translate(1447,1507)" d="m0 0h9l6 4 7 7 4 10v10l-3 10 10 3 5 2 9 2 8 5 3 5-2 5-9 3-6-2-12-7-14-4-11-6-1-4 6-7 6-4-1-8-8-11-4-2-8 1-12 6-5 4-1 4 4 8 9 10 10 11 14 28 1 5-1 1-7-1-5-4-20-26-13-21-6-10-1-6 10-8 14-8 10-4z" fill="#FEFEFE"/>
<path transform="translate(551,255)" d="m0 0 7 1 14 7 11 6 20 10 12 7 10 8 7 9-1 6-5 2-13-8-10-8-4-1-2 4-10 7-8 7-6 3-1 3v16l2 7v5l-3 3-4-1-4-9-8-35-5-21-3-22 3-5zm13 24v15l3 9 2 2 5-1 8-6 3-4v-5l-9-6-9-4z" fill="#FEFEFE"/>
<path transform="translate(296,1156)" d="m0 0h10l12 3 11 7 8 9 6 10 4 10v11l-6 10-7 7-4 2-7 1-3-1 2-6 8-13 2-6v-7l-4-8-9-9-9-5-8-1-14 4-12 6-5 4-6 10-2 6v10l4 8 8 7 12 5 7 8 1 5-5 3-6-1-4-3v-2l-3-1v-2h-2l-7-8-9-9-7-11-2-4 1-10 8-16 7-8 11-8 10-5z" fill="#FEFEFE"/>
<path transform="translate(226,760)" d="m0 0 16 8 23 16 14 10 10 7 7 7v6l-7 4-30 9-28 7-15 5h-11v-9l8-5 22-8 4-3-1-2-1-25 1-3 4 2 7 13 3 3 11 2-3 3-4 2 14-4 2-1-8-5-19-14-13-9-6-9-1-6z" fill="#FEFEFE"/>
<path transform="translate(721,1588)" d="m0 0h12l9 3 11 8 5 4 9 14 3 8v8l-2 2-2 4-3-6-6-9-6-12-4-5v-2l-4-2-5-4-3-1h-11l-10 6-11 11-5 8-2 6-1 10 2 9 6 9 7 7 12 5h9l10-5 11-10 5-5-1 10-4 11-9 8-13 5-11-1-12-5-9-7-7-7-6-10-3-9v-11l3-11 6-11 9-11 12-9z" fill="#FEFEFE"/>
<path transform="translate(1790,861)" d="m0 0 10 1 9 7 7 7 6 12 2 7v8l-3 11-6 9-9 10-8 6-10 4-4 1h-18l-7-3-6-4-10-10-9-14-3-9v-11l4-9 7-9 9-8 6-2h6l2 1-1 5-13 12-7 8-2 4 1 9 3 6 8 10 16 8 11 1 8-2 14-7 5-4 4-9 1-9-5-13-9-10-9-12z" fill="#FEFEFE"/>
<path transform="translate(1619,417)" d="m0 0h19l8 3 10 8 8 9 6 10 4 10-2 6-7 10-8 7h-2l1-11 2-8v-7l-3-9-7-9-7-6-7-3-9 1-11 6-12 11-8 13-2 5v8l6 12 7 7 9 4h20l1 1v6l-7 3h-21l-8-4-8-8-7-10-6-12-1-9 6-12 8-10 16-16 8-5z" fill="#FEFEFE"/>
<path transform="translate(1534,1428)" d="m0 0 9 1 16 5 15 6 18 6 22 8 5 4v7l-4 1-15-4-14-1-4 1-7 8-9 6-5 3 3 12 7 19v5l-3 3-5-2-5-8-11-29-8-17-8-16-4-13 1-3zm10 16 4 13 6 12 5 7 4-1 3-9 5-6 2-1-1-3-22-11z" fill="#FEFEFE"/>
<path transform="translate(1285,157)" d="m0 0 5 1 2 4 3 33 8 54v7h-8l-6-3-4-6-2-8-1-9-2-4-13-5-10-7-1-2-9 2-6 8-4 5-4 2-6-1 1-6 11-13 9-10 13-14 4-5 7-6 6-8zm-7 22-10 9-5 5-4 6 1 7 9 6 11 5h3v-15l-2-18-1-5z" fill="#FEFEFE"/>
<path transform="translate(1011,1644)" d="m0 0h18l16 6 6 4 4 6 2 10-1 3-7-1-10-9-8-7-7-3h-8l-4 3h-2l-2 5-2 6 4 5 10 6 23 12 11 9 4 9v7l-6 5-15 10-9 1h-14l-9-3-3-6v-13l4 2 10 11 9 4 7 1 10-6 3-4-1-5-5-6-15-9-11-6-12-9-8-7-2-4v-7l5-9 8-8z" fill="#FEFEFE"/>
<path transform="translate(1141,1640)" d="m0 0h6l5 8 3 14 2 18v11l-1 9-6 10-7 8-11 9-6 3-8 1-10-3-9-6-8-7-7-14-3-16-3-37 1-5 9 1 2 5 7 40 5 15 6 8 8 7 3 1h7l9-6 6-8 4-13v-9l-4-30-1-13z" fill="#FEFEFE"/>
<path transform="translate(964,115)" d="m0 0h33l1 3-2 5-27 1-11 2-2 1v20l2 7 11-4 18-2 7 1 2 2v4l-23 2-13 3-3 5-1 9 2 14 3 5 10 2 14-1 18-4h3v7l-9 3-29 6h-13l-7-6-4-11-3-17-2-30v-9l1-9 3-5 4-2z" fill="#FEFEFE"/>
<path transform="translate(1702,504)" d="m0 0 5 1 2 2-1 5-14 8-3 1-2 9 3 4 2 4 9 2 16 1 8 2 6 5v4l-6 1-15-5-15-3-6-3h-5l-3 10-8 21-6 18-4 6h-3l-5-5-1-2v-8l5-13 9-27 1-6-13 6-9 5-8 2-5-2 1-5 9-8 17-10 18-11 12-6zm-14 30-1 5 4-1v-3z" fill="#FEFEFE"/>
<path transform="translate(1672,1229)" d="m0 0 7 1 16 9 15 9 9 6 10 9 8 8v2h2l3 6-2 6-7 10-12 14-15 15h-7l-21-10-19-10-14-6-12-5-1-1 1-8 2-3h9l16 8 25 13 11 4 11 2 6-1 5-2 2-4 7-12 4-8-1-4-9-10-14-9-17-9-11-7-6-7z" fill="#FEFEFE"/>
<path transform="translate(389,1328)" d="m0 0h15l8 3 9 6 7 7 9 14 2 6v11l-4 12-4 6-4 2-5-1-4-5-1-5 5-12 3-1 1-6-4-9-5-6-11-7-4-2-10 1-16 7-8 6-7 8-4 9-1 4v9l4 9 7 8 6 4 4 1 17 1 2 1-1 4-7 2h-9l-9-3-8-9-9-12-4-8-1-4v-10l4-12 8-11 8-8 14-8z" fill="#FEFEFE"/>
<path transform="translate(1806,758)" d="m0 0 5 3-1 4-13 10-10 7-10 8 4 4 6 5 4 8v6l-4 1-10-7-3-9v-5h-2v2l-16 8-7 6h-2v2l8 1 16 6 8 2 16 2 12 5 12 9 1 3-3 2-9-1-13-6-31-6-24-7-11-3-1-5 5-6 11-9 18-12 19-13 13-9z" fill="#FEFEFE"/>
<path transform="translate(285,956)" d="m0 0 5 1 2 1v6l-3 5-21 13-26 15-11 7 3 2 11 5 20 7 20 9 10 9 2 2v3l-8-1-30-10-26-11-17-8-10-5 2-4 16-10 22-13 15-9 19-12z" fill="#FEFEFE"/>
<path transform="translate(507,1451)" d="m0 0h7l3 2v12l-6 20-12 35-7 16-4 4h-3l-1-2 1-14 2-13v-8l-2-5-7-4-9-10-2-1h-11l-16 5-9-1 2-5 12-6 15-4 16-8 19-9zm-5 10-19 9-13 5-1 3 3 5 8 6 4 5 2 4 4-1 4-5 5-17 4-7 1-7z" fill="#FEFEFE"/>
<path transform="translate(599,1521)" d="m0 0h6l21 12 14 10 6 7 1 6-5-2-16-12-19-10h-5l-4 7-5 11-1 7-8 7-11 15-3 5 1 5 4 6 14 11 11 5 5 2 1 7-4 1-9-4-10-7-13-11-14-6-4-4 1-6 4-6 8-9 11-16 4-8 8-12 6-7z" fill="#FEFEFE"/>
<path transform="translate(903,1641)" d="m0 0 5 3 8 10 12 18 13 18 6 8 6 5 2 1 4-31 1-15 5-8 4 1 1 1v11l-6 40-2 13 1 7-3 7-2 1-6-4-6-9-7-11-9-11-15-22-11-14-5-4 1-11z" fill="#FEFEFE"/>
<path transform="translate(1295,1587)" d="m0 0h6l2 2v5l-6 5-17 8-5 2 10 27 11 26 6 15 1 5-2 2-8 1-7-8-9-24-13-35-3-6h-8l-16 3h-8l4-3 13-5 17-6 12-4 16-8z" fill="#FEFEFE"/>
<path transform="translate(1693,1091)" d="m0 0h3l3 14 3 2 12-1 14 5 27 7 19 6 18 5 3 3-2 10-3 4-6-1-10-6-16-4-16-5-24-7-21-7-8-6-2-4 1-8 4-6z" fill="#FEFEFE"/>
<path transform="translate(1737,969)" d="m0 0h50l11 1 9 3 11 2 4 5v6l-2 2h-46l-38-2-3-6 1-8z" fill="#FEFEFE"/>
<path transform="translate(365,585)" d="m0 0h6l-2 9-10 19-7 11-2 10-1 2-6-1-17-7-25-12-27-14-5-5v-7l2-2h5l10 6 17 8 16 8 23 11 3 2 2-6 10-22z" fill="#FEFEFE"/>
<path transform="translate(1179,1625)" d="m0 0h7l3 6 6 27 9 35 3 7h9l12-3 5-2 4 1 3 4v3l-7 3-14 2h-13l-7 1-3-1-5-10-6-20-7-30-5-16v-5z" fill="#FEFEFE"/>
<path transform="translate(1025,1277)" d="m0 0 8 1 8 6 5 10v14l-4 6-6 5-5 2-9-1-9-6-7-8-3-5 1-6 8-8 5-6z" fill="#FEFEFE"/>
<path transform="translate(1623,1311)" d="m0 0 6 2 11 7v2l4 2 10 9 16 12 12 11 6 8v7l-6 10-9 10-5 3h-5l-1-4 13-18 1-5-4-6-12-9-15-10-10-8-10-9-3-4v-8z" fill="#FEFEFE"/>
<path transform="translate(729,158)" d="m0 0 5 2 5 6 17 40 7 21 2 9v9l-4 1-6-5-7-14-13-37-5-18z" fill="#FEFEFE"/>
<path transform="translate(1481,1473)" d="m0 0 9 2 10 11 7 9 12 15 11 14 8 10 1 6-1 1-9-1-9-8-11-15-10-13-12-14-9-10-1-5z" fill="#FEFEFE"/>
<path transform="translate(467,1397)" d="m0 0h4l2 3-1 7-4 6-8 7-13 11-18 13-13 11-7 5-4-1-2-2 1-4 9-8 13-10 15-13 19-19z" fill="#FEFEFE"/>
<path transform="translate(1749,591)" d="m0 0h5l1 1-1 7-6 5-46 22-13 4-4-1 3-8 10-6 12-6 12-5 23-11z" fill="#FEFEFE"/>
<path transform="translate(897,1659)" d="m0 0h3v23l1 12-5 1-5-3-1-3v-16l4-11z" fill="#FEFEFE"/>
<path transform="translate(299,1183)" d="m0 0 6 2 6 5 4 9-4-2-10-10z" fill="#FEFEFE"/>
<path transform="translate(596,1564)" d="m0 0 7 2 6 5-3 1-7-4z" fill="#FEFEFE"/>
<path transform="translate(406,1362)" d="m0 0 5 2 2 2v3l-4-1z" fill="#FEFEFE"/>
<path transform="translate(337,1285)" d="m0 0 1 2 2 1-3 4h-2l1-5z" fill="#FEFEFE"/>
<path transform="translate(1783,816)" d="m0 0h8l1 2h-9z" fill="#FEFEFE"/>
<path transform="translate(1513,362)" d="m0 0h2l1 5h-4z" fill="#FEFEFE"/>
<path transform="translate(1512,353)" d="m0 0 2 2v5h-2l-1-6z" fill="#FEFEFE"/>
<path transform="translate(621,1577)" d="m0 0 4 1v5h-2z" fill="#FEFEFE"/>
<path transform="translate(759,1644)" d="m0 0 1 2-3 3z" fill="#FEFEFE"/>
<path transform="translate(1769,797)" d="m0 0h2l-1 4z" fill="#FEFEFE"/>
<path transform="translate(515,360)" d="m0 0 3 1v2l-3-1z" fill="#FEFEFE"/>
<path transform="translate(1717,1184)" d="m0 0 2 1-5 1z" fill="#FEFEFE"/>
<path transform="translate(361,1321)" d="m0 0 2 1-3 2z" fill="#FEFEFE"/>
<path transform="translate(342,1282)" d="m0 0 2 1-3 2z" fill="#FEFEFE"/>
<path transform="translate(511,365)" d="m0 0 3 1-3 1z" fill="#FEFEFE"/>
<path transform="translate(735,1624)" d="m0 0 2 1z" fill="#FEFEFE"/>
<path transform="translate(733,1623)" d="m0 0 2 1z" fill="#FEFEFE"/>
<path transform="translate(594,1563)" d="m0 0 2 1z" fill="#FEFEFE"/>
<path transform="translate(737,1625)" d="m0 0" fill="#FEFEFE"/>
<path transform="translate(620,1576)" d="m0 0" fill="#FEFEFE"/>
<path transform="translate(357,1326)" d="m0 0" fill="#FEFEFE"/>
<path transform="translate(358,1325)" d="m0 0" fill="#FEFEFE"/>
<path transform="translate(359,1324)" d="m0 0" fill="#FEFEFE"/>
<path transform="translate(363,1320)" d="m0 0" fill="#FEFEFE"/>
<path transform="translate(364,1319)" d="m0 0" fill="#FEFEFE"/>
<path transform="translate(365,1318)" d="m0 0" fill="#FEFEFE"/>
<path transform="translate(328,1285)" d="m0 0" fill="#FEFEFE"/>
<path transform="translate(1153,745)" d="m0 0" fill="#FEFEFE"/>
<path transform="translate(1152,744)" d="m0 0" fill="#FEFEFE"/>
</svg>
