<?xml version="1.0" encoding="UTF-8"?>
<svg version="1.1" viewBox="0 0 1258 2048" width="142" height="231" xmlns="http://www.w3.org/2000/svg">
<path transform="translate(575,111)" d="m0 0h71l45 2 57 5 30 5 23 6 28 10 29 13 19 10 19 12 19 14 11 10 8 7 9 10 12 15 11 18 8 16 7 19 5 24 3 23v22l-3 23-4 24-6 20-8 19-8 16-12 19-20 25-6 7-8 7-10 9-10 8-16 13-18 13-15 10-18 11-16 9-70 36-20 10-23 13-20 12-12 8-18 13-13 11-12 11-18 18-9 11-11 15-11 18-9 16-12 28-12 35-13 46-14 56-20 100-8 42-10 56-8 51-4 26v6l8 5 19 10 19 8 27 9 24 6 32 5 18 2 15 1h50l40-4 33-5 25-6 33-11 24-10 23-11 27-16 25-17 12-9 11-9 15-14 7-7 7-8 12-15 11-17 17-28 9-17 12-29 9-25 7-27 6-33 2-16 1-15v-41l-2-24-4-26-7-30-7-21-11-28-9-20-12-22-21-31-12-13-13-13-14-11-13-10-18-13-21-12-17-9-1-4 5-3 17 3 25 7 16 5 21 9 22 12 16 10 16 11 12 9 12 11 8 7 9 10 12 16 13 21 10 19 10 24 10 30 7 27 3 21 1 11 1 25v21l-1 26-3 25-9 42-8 30-9 25-11 25-11 20-15 24-10 13-10 14-12 14-7 7-7 8-9 9-8 7-10 9-10 8-17 12-16 11-28 17-32 17-30 13-24 9-33 9-36 7-28 3-41 2h-30l-38-2-22-3-30-6-22-6-28-10-26-11-15-8-6-4-4 17-14 51-11 31-8 18-8 16-9 17-11 18-16 24-14 19-12 14-11 12-8 9 12 3 22 4 45 9 35 8 44 11 52 14 61 16 42 10 29 6 51 8 32 3 22 1h45l31-2 40-5 29-5 24-6 21-7 19-8 20-10 17-11 16-13 16-15 10-11 7-10 9-15 8-19 3-10 4-6h3l1 4-4 19-9 24-11 26-11 18-8 10-12 13-14 13-13 10-20 13-22 12-20 9-36 12-23 6-27 5-23 3-27 2-23 1h-53l-37-2-28-3-57-11-39-9-38-10-83-21-65-16-46-11-34-7-19-3h-6l-11 7-11 9-16 12-15 11-17 11-20 11-33 11-11 2-19 1-17-2-12-4-11-6-12-11-6-9-3-9v-13l4-14 6-11 9-11 12-10 14-8 14-6 17-5 24-4 11-1h73l8-2 6-5 9-11 12-16 12-19 16-29 14-31 14-38 10-31 10-37 7-32 4-21v-10l-9-7-16-11-13-10-14-11-15-14-8-7-27-27-7-8-12-14-12-16-12-17-12-19-14-26-11-24-11-28-10-30-7-30-4-24-2-24v-43l2-21 5-24 7-26 9-26 10-24 8-16 10-18 12-20 12-17 5-4 1 3-7 17-12 27-9 25-8 29-6 29-3 21-1 14v59l4 27 6 28 7 25 14 41 11 27 13 25 17 28 10 15 10 14 13 16 12 13 12 12 7 8 7 7 8 7 11 11 11 9 14 10 2-8 8-37 7-35 13-68 9-52 10-45 10-36 9-29 9-25 13-32 10-21 13-22 14-20 11-13 8-10 11-12 18-18 11-9 11-10 16-12 14-10 35-21 19-11 28-16 32-18 36-20 21-13 24-16 13-10 13-11 15-13 8-8 15-20 10-16 10-18 6-15 6-22 3-19v-37l-2-23-5-25-6-20-8-21-11-21-15-22-11-13-9-9-14-11-16-11-16-9-16-7-23-7-32-6-15-2-28-2-64-2h-36l-137 3-11 1 6 7 1 58v334l-1 80-1 34-2 27-6 47-4 20-7 22-9 24-11 20-8 10-7 5-5 1-7-2-2-4-1-31v-612l-2-10-8-11-13-10-19-9-33-11-7-6-1-3 2-3 13-2 122-2 100-3zm-387 1423-18 2-19 5-13 7-10 8-13 13-1 2v6l6 7 11 5 5 1h21l19-5 15-6 16-9 20-13 13-11 2-3-6-3-18-4-8-1z" fill="#F7E2C2"/>
<path transform="translate(608,1825)" d="m0 0h18l15 5 10 7 7 8 5 10 3 10 1 7v9l-3 12-7 11-9 10-9 6-12 5-3 1h-14l-10-3-9-5-11-10-7-11-5-11-1-3v-13l5-16 8-12 9-9 12-6z" fill="#F8E3C3"/>
<path transform="translate(578,119)" d="m0 0h77l29 2 18 2 27 2 13 2 11 3 1 4-2 2-12 2-41-3-47-2h-78l-27 1h-115l-7-2-2-5 5-5 8-1 49-1z" fill="#FEFEFC"/>
<path transform="translate(493,1253)" d="m0 0 12 3 14 7 16 5 25 5 23 2 24 1 44 1h30l28-2 27-4h4v2l-12 5-16 5-5 4-13 4-5 1-30 2-8 1h-31l-26-2-30-4-30-7-26-8-24-11-3-3 2-4z" fill="#FFFFE8"/>
<path transform="translate(1096,1440)" d="m0 0h3l1 4-4 19-9 24-11 26-3 5-2-1-1-4-7 3-21 18-5 5-7 5-7 4-12 9-22 11h-2l2-4 5-5 3-2 1-3 18-10 12-9 11-9 16-15 10-11 7-10 9-15 8-19 3-10z" fill="#FEFEE7"/>
<path transform="translate(575,111)" d="m0 0h71l45 2 57 5 30 5 23 6 11 4v1l-8-1-19-5-21-4-11-2-21-2-46-3h-86l-157 1h-14l-27-1v-1l24-1 100-3z" fill="#CDB88E"/>
<path transform="translate(533,135)" d="m0 0h133l33 2 45 5 20 5 16 6 12 6-3 1-16-6-23-6-31-5-20-2-40-2-39-1h-36l-137 3-11 1 6 7v9l-5-3-10-8-8-7v-2l2-1z" fill="#CDB88D"/>
<path transform="translate(578,119)" d="m0 0h77l29 2 18 2 27 2 13 2 11 3 1 4-2 2-12 2-41-3-47-2-4-2h31l7-2-3-3-13-3-32-2-60-1z" fill="#FFFFE8"/>
<path transform="translate(485,120)" d="m0 0h68v1l-35 1-20 2-17 5-1 4 4 1h-52l-7-2-2-5 5-5 8-1z" fill="#FFFFE8"/>
<path transform="translate(789,1249)" d="m0 0 4 1-9 4-21 7-25 6-25 4-20 2-23 1h-21l-38-2-18-3-8-2v-1l16 1 25 2h50l40-4 33-5 25-6z" fill="#CDB88D"/>
<path transform="translate(247,630)" d="m0 0 2 1-3 10-14 31-2 5h-2v2l-6 1-6 12-4 5-3 5-5 4 2-8 4-7 2-8 16-27 12-18z" fill="#FEFCE5"/>
<path transform="translate(182,756)" d="m0 0 1 3-4 16-3 21-2 21-1 22v28l1 26 1 21-2-3-4-27-1-15v-43l2-21 5-24 6-23z" fill="#CDB88E"/>
<path transform="translate(496,1273)" d="m0 0 6 1 18 6 21 6 38 8 28 4 37 3 44 1v1l-15 1h-30l-38-2-22-3-30-6-22-6-28-10-7-3z" fill="#CFBA90"/>
<path transform="translate(291,119)" d="m0 0 4 1 17 3 7 2 8 9 10 6 14 10-1 2-15-8-38-13-7-6-1-3z" fill="#FEFEE8"/>
<path transform="translate(945,1580)" d="m0 0 3 1v2l-9 4-10 4-27 5-17 2-21 1-6-1 3-2 15-3 31-6 13-2 7 1 13-3z" fill="#FFFFE8"/>
<path transform="translate(907,1235)" d="m0 0 3 1-15 9-28 15-29 13-27 10-33 9-36 7-16 2h-13v-1l46-7 26-6 23-6 30-11 27-12 24-12 17-10z" fill="#CDB88E"/>
<path transform="translate(793,1285)" d="m0 0m-5 1h5v2l-24 6-34 6-9 1h-13v-1l46-7 26-6z" fill="#D0BB91"/>
<path transform="translate(840,515)" d="m0 0h2l-2 4-13 11-10 7-2-1 16-13z" fill="#D1BC92"/>
<path transform="translate(822,1276)" d="m0 0m-3 1h3v2l-18 6-7 2-4-1 8-3z" fill="#CDB88D"/>
<path transform="translate(229,1538)" d="m0 0 14 1 4 2v2l-7 5-2-1 3-4-12-4z" fill="#CDB88D"/>
<path transform="translate(247,630)" d="m0 0 2 1-3 10h-2l-2-2h-3z" fill="#FCFAF5"/>
<path transform="translate(291,119)" d="m0 0 2 1 3 9 4 1-1 2-6-4-4-5z" fill="#FDFDFC"/>
<path transform="translate(1082,1473)" d="m0 0 2 1-2 7-6 4 2-5z" fill="#F8E3C3"/>
<path transform="translate(835,1271)" d="m0 0m-2 1h2v2l-10 4-3-1 5-3z" fill="#CEB98F"/>
</svg>
