<?xml version="1.0" encoding="UTF-8"?>
<svg version="1.1" viewBox="0 0 2000 2000" width="500" height="500" xmlns="http://www.w3.org/2000/svg">
<path transform="translate(1335,297)" d="m0 0 6 1 5 4 1 8-3 34-3 27-1 4 11-8 13-11 18-11 17-9 5 1 3 5-1 8-8 16-8 15-16 23-6 9h-4l-2-2v-9l5-12 10-19 5-8 1-4-11 7-11 8-14 10-9 8-7-1-4-4v-51l-5 4-10 18-8 13-4 1-4-3 3-10 11-21 8-12 9-14z" fill="#EEECC2"/>
<path transform="translate(839,232)" d="m0 0h20l8 3 7 8 5 12 1 8-3 6 7 6 4 9 1 11-3 9-7 7-9 5-15 3h-23l-4-3-4-15-9-50v-8l3-5 9-4zm1 9-6 3-1 2v19l2 7 9-1 22-7 1-5-6-12-7-6zm24 34-25 6-3 2v8l4 12 4 5 2 1h12l10-4 7-8 1-2v-10l-4-8-2-2z" fill="#EEECC2"/>
<path transform="translate(202,958)" d="m0 0h73l6 3 4 9 1 6v13l-3 12-5 10-9 11-10 8-7 2-14 1-11-2-9-5-11-11-8-14-3-12v-10l3-16zm9 18-5 2-2 6 1 10 4 8 7 8 10 7 7 3 9 1 9-2 9-7 6-7 8-14 1-9-4-4-4-1-21-1z" fill="#EEECC2"/>
<path transform="translate(1145,232)" d="m0 0 11 1 8 4 10 9 6 7 6 12 1 4v7l-6-1-11-11-8-11-8-7-8-1-10 6-7 7-7 11-4 12v8l3 11 5 6 14 8h11l8-5 3-4-1-5-7-8-4-5 1-7 1-1 8 1 15 7 9 4-1 8-6 12-9 10-10 6-3 1h-13l-12-5-10-8-8-8-8-16-1-4v-7l4-12 6-11 8-10 5-5 7-6 7-3z" fill="#EEECC3"/>
<path transform="translate(1525,440)" d="m0 0h9l10 4 11 10 7 12 3 8v7l-7 6-4-2-6-12-5-12-6-7-6-3-3 1-1 13 2 16 8 20v9l-5 8-7 7-5 2h-14l-12-6-7-7-8-14-2-11 4-10 6-7 4-1 2 2v21l3 9 6 7 8 4 5-1v-16l-3-16-4-12v-11l4-8 8-8z" fill="#EEECC2"/>
<path transform="translate(1672,1232)" d="m0 0 6 1 13 12 13 14 4 2h8l12-5 6-3 5 1v9l-4 8-1 1-20 1-9 1-6 5-6 12 5 2 22 10 3 3v9l-5 1-20-7-26-10-27-13-6-4-1-3 13-24 11-14zm-2 18-5 2-7 11-3 6 1 5 6 5 7 4 9 3h4l6-10 2-5-1-7-7-10-7-4z" fill="#EEECC2"/>
<path transform="translate(1031,220)" d="m0 0h15l12 2 8 4 7 7 4 11v7l-4 7-7 7-7 5h-2l1 9 9 13 7 8 2 4v5l-1 1-9-1-6-4-8-13-7-9-9-9-4-2-3 9-4 20-5 5-7-1-1-1v-62l3-9 6-9 5-3zm9 7-7 4-2 3-1 5v13l2 7 5 5 7 3 7-1 9-8 4-9-1-6-6-9-9-6z" fill="#EEECC2"/>
<path transform="translate(478,409)" d="m0 0h8l6 4 7 7 5 10 3 17 5 4 18 6 7 3 2 2v6l-4 3-10 2-4 1-6-4-8-7-4-1-3 2-19 1 1-6 9-13 1-3v-7l-5-8-5-3h-7l-11 4-6 7v7l6 8 7 7 9 7 8 13 11 12 3 6-2 5-3 3h-5l-8-9-8-11-12-14-12-12-7-8-5-7v-7l6-7 15-10z" fill="#EEECC2"/>
<path transform="translate(348,564)" d="m0 0h9l12 4 12 7 9 8 10 14 4 10-1 10-6 11-11 13-9 8-9 5-9 2-12-3-14-7-10-9-8-13-4-10-1-4v-7l4-9 7-9 9-10 12-9zm-3 14-8 3-8 7-5 10-1 3v11l3 8 8 10 9 7 11 4h14l8-3 6-5 5-8 1-3v-16l-6-12-7-8-10-6-5-2z" fill="#EEECC2"/>
<path transform="translate(661,285)" d="m0 0 6 1 4 5 12 22 10 19 10 21 1 5-5 3h-12l-16-5-37-15-6-1 3 9 15 34 2 7v5l-2 1-5-5-14-26-10-18-11-24-1-6h7l19 5 29 11 21 7h2l-14-29-8-19-1-5z" fill="#EEECC2"/>
<path transform="translate(329,1344)" d="m0 0h29l12 2 4 4-8 11-11 13-12 13-11 14-8 9-9 12-5 1-1-1v-7l10-18-1-8-10-15-6-12-16-1-7-3-4-5 1-4 35-3zm15 14-12 3-1 1v9l5-2 9-9zm-22 3-4 2 1 5 5 6 3 1 3-2-1-6v-6z" fill="#EEECC2"/>
<path transform="translate(1332,1628)" d="m0 0h10l12 6 12 10 9 12 7 16 1 8-3 7-6 8-9 10-7 7-11 7-7 2-11-1-12-5-10-8-7-10-5-10-3-10v-12l4-9 8-11 9-8 12-7zm-1 12-12 5-4 3v2h-2l-6 9-2 6v12l4 11 8 11 10 7 9 3h10l9-4 7-7 4-11v-15l-5-12-7-9-8-7-10-4z" fill="#EEECC2"/>
<path transform="translate(1714,1100)" d="m0 0h19l11 4 11 8 7 7 6 11 1 4v21l-3 16-3 6-3 1-32-4-23-5-24-7-3-5 2-17 4-11 9-14 5-6 10-7zm5 11-12 6-8 9-8 15-1 9 5 3 29 5 20 6h11l3-3 2-7v-11l-3-10-6-8-8-7-12-6-4-1z" fill="#EEECC2"/>
<path transform="translate(256,1138)" d="m0 0h11l13 4 10 7 9 9 6 10 2 6v13l-6 12-9 11-7 7-10 7-9 4h-12l-12-5-10-8-8-8-8-13-2-6v-11l7-14 8-10 8-7 14-7zm-3 13-9 4-8 6-7 7-5 10-1 7 3 9 6 7 10 7 14 4h11l10-4 9-8 6-9 2-6v-13l-4-8-8-8-11-5z" fill="#EEECC2"/>
<path transform="translate(406,483)" d="m0 0h10l8 4 7 7 5 10 3 10 9 3 21 4 1 3-6 8-6 4-19-1-15-1-11-3 1-6 8-11-1-6-6-12-3-1h-7l-12 6-3 3h-2l-2 5-1 3 4 6 13 10 11 8 10 11 7 8 6 7 1 5-3 3-9-3-13-9-11-10-8-7-15-14-5-6 1-8 8-11 10-11 10-6z" fill="#EEECC2"/>
<path transform="translate(1468,385)" d="m0 0h6l2 2-1 15-5 27-8 28-5 16-2 3-7-1-7-6 1-5 4-8 2-10-2-5-8-5-15-8h-12l-8 3h-5l-2-2v-7l8-7 18-10 27-13 15-6zm-14 17-12 5-8 6 3 9 5 5 3 2 5-1 6-10 4-13-1-3z" fill="#EEECC2"/>
<path transform="translate(1411,1582)" d="m0 0h10l6 3 5 5 5 8 2 7-1 10-1 7 23 7 7 5 2 4-1 5-5 2h-9l-15-7-15-5-8-6-1-3 5-6 6-4 1-7-6-9-6-4-10 2-14 7 1 8 6 8 10 11 8 13 10 20v5h-6l-6-4-10-12-12-16-14-24-3-6 1-4 9-8 14-8z" fill="#EEECC2"/>
<path transform="translate(286,1239)" d="m0 0h15l12 4 9 7 8 9 8 16 1 3v9l-4 8-9 10-4 2h-10l2-6 8-16 1-9-5-10-7-7-7-4-9-1-13 3-13 7-8 9-3 7-1 9 2 7 7 8 15 9 5 4 1 7-4 4-6-2-15-14-5-5-6-7-7-13v-7l5-13 8-11 9-8 10-6z" fill="#EEECC2"/>
<path transform="translate(538,359)" d="m0 0 7 1 16 8 27 14 16 10 10 9 3 5-1 6-4 2-11-6-13-10-4 1-10 9-10 8-5 3 1 30-2 2-4-1-3-4-4-14-10-44-2-15v-10l1-3zm13 23-1 2 1 16 3 7 3 1 10-6 5-6-2-4-9-6z" fill="#EEECC2"/>
<path transform="translate(220,853)" d="m0 0 4 1 16 8 19 14 17 12 9 7 4 4v6l-10 5-29 9-33 9-12 3-4-1-1-2v-6l5-5 25-10 1-1v-27l1-3 4 2 8 13 4 3 6 2h8v-2l-9-6-26-20-4-5-3-5z" fill="#EEECC3"/>
<path transform="translate(702,1661)" d="m0 0h16l12 6 13 12 7 12 2 8-1 10-3 1-4-5-12-21-8-9-7-3h-9l-7 3-8 6-7 8-5 10-1 3v15l5 10 8 7 11 5h10l10-5 10-9 3-3 3 1-2 10-6 10-7 6-11 4h-11l-11-4-11-8-9-10-5-10-1-4v-15l4-11 7-11 10-11 10-6z" fill="#EEECC2"/>
<path transform="translate(1748,951)" d="m0 0h8l9 6 7 7 6 10 3 8v14l-4 10-7 9-8 8-10 6-12 3h-13l-10-3-11-8v-2h-2l-7-10-6-12-1-5v-9l4-10 9-11 9-6 3-1h7l2 1-1 4-16 16-4 7v8l3 8 6 8 11 7 6 2h16l14-7 5-4 5-10v-10l-6-12-14-18z" fill="#EEECC2"/>
<path transform="translate(798,1692)" d="m0 0h8l10 2 12 6 8 7 8 12 3 8 1 13-2 9-7 11-9 9-10 7-8 3h-20l-10-4-9-7-7-10-6-12-1-4v-9l5-12 6-11 10-11 12-6zm1 9-12 6-6 7-4 8-2 8v22l3 8 7 8 6 3 4 1h16l8-4 7-7 7-14 1-4v-17l-4-10-9-10-7-4-4-1z" fill="#EEECC2"/>
<path transform="translate(1580,518)" d="m0 0h21l9 4 10 8 8 11 6 13-1 9-6 8-8 8h-2l-1-2v-7l2-8v-9l-4-10-7-9-8-5-8-1-9 3-9 6-8 8-8 14-1 3v8l4 10 7 8 6 3 5 1 19 1-1 6-3 3-2 1h-22l-8-4-9-9-8-14-4-10 1-8 5-10 9-11 11-12 10-6z" fill="#EEECC2"/>
<path transform="translate(1113,1712)" d="m0 0h6l4 4 4 12 3 21v17l-3 9-8 10-9 9-8 5-4 1h-11l-12-6-8-7-6-10-4-12-3-19-2-23v-7l2-1 8 1 2 2 7 39 5 16 6 8 7 6 5 2 6-1 8-5 6-8 2-7v-22l-3-27z" fill="#EEECC2"/>
<path transform="translate(938,223)" d="m0 0h35l1 5-3 2-30 2-6 1-1 5v12l1 9 17-4 14-1 5 1 1 7-5 1-22 2-9 4-2 5v9l3 14 3 2h21l16-3h5l1 5-4 3-13 4-15 3-17 1-5-2-5-8-4-15-3-25-1-23 2-9 6-5z" fill="#EEECC3"/>
<path transform="translate(986,1716)" d="m0 0h19l10 3 9 5 6 7 2 7v6h-6l-13-11-10-6-3-1h-7l-6 3-3 4v7l8 6 27 15 11 10 3 6v7l-4 5-14 10-7 2h-17l-9-3-3-5-1-4v-8l4-1 10 11 7 4 7 1 7-3 6-5 1-4-3-5-11-7-16-9-13-10-7-7-2-3v-8l4-8 6-7z" fill="#EEECC2"/>
<path transform="translate(1661,603)" d="m0 0 7 1 1 4-6 5-11 7-2 12-1 3 12 1 20 3 8 3 3 5-1 3-9-1-25-6-10-3-14 40-4 9-3 4-5-2-4-5v-8l13-38 1-5-23 11-6 1-4-2-1-4 7-7 17-11 23-14 11-5z" fill="#EEECC2"/>
<path transform="translate(1255,264)" d="m0 0 5 1 2 6 5 44 6 42-1 3-10-1-6-5-3-6-2-15-19-10-7-5-6 1-9 10-4 4-5 1-3-2 1-5 7-9 9-10 15-16 9-10 13-15zm-6 20-8 7-9 9-4 6 1 4 13 8 7 4h3v-24l-1-14z" fill="#EEECC2"/>
<path transform="translate(1495,1505)" d="m0 0h8l21 6 25 9 18 6 12 6 2 3-1 7-10-2-19-3-5 1-10 9-10 8h-2l10 30v6l-6 1-5-6-16-38-13-28-2-6v-7zm13 15 2 9 6 14 6 10 3-1 6-11 5-6v-3l-23-11z" fill="#EEECC3"/>
<path transform="translate(1633,1311)" d="m0 0 8 1 21 11 13 9 13 11 7 7 5 7v6l-9 14-11 13-6 6h-2l-2 4-4 3h-7l-21-9-19-10-24-11-2-2 1-5 4-6 7 1 23 11 17 9 14 5 13 1 7-6 8-14 2-4v-6l-8-8-17-11-21-12-8-8-2-4z" fill="#EEECC3"/>
<path transform="translate(380,1407)" d="m0 0h15l10 4 10 9 7 8 6 12 1 9-2 10-5 10-4 4-5-1-4-4-1-2v-8l7-13-3-9-8-9-9-5-9-1-12 4-9 5-10 9-6 12-1 4v7l5 10 9 9 4 2 19 2 1 3-3 3h-17l-6-3-9-9-9-14-2-5v-16l4-10 8-10 8-8 12-7z" fill="#EEECC2"/>
<path transform="translate(1759,852)" d="m0 0h8l1 4-9 8-14 11-8 6 6 7 6 9v7l-1 3-4-1-6-5-7-11-1-2-5 2-15 9-3 1v2l8 1 20 6 17 3 16 8 8 7 1 4-1 1-10-1-17-6-31-7-29-9-2-4 4-6 8-7 12-8 18-13 24-16z" fill="#EEECC2"/>
<path transform="translate(279,1043)" d="m0 0 4 1 2 2-1 9-10 7-30 18-14 8-3 3 12 6 26 9 15 8 6 5 4 8v1l-7-1-33-12-33-14-16-8 2-4 10-7 21-13 29-17 13-8z" fill="#EEECC2"/>
<path transform="translate(495,1527)" d="m0 0h8l2 4-1 12-5 19-10 29-8 18-4 5-4-1-1-5 3-20v-11l-4-5-11-9-5-3h-13l-12 3h-8v-4l8-5 12-5 12-4 26-13zm-6 10-31 14v4l4 5 9 7 5 6 4-1 10-26 2-5v-4z" fill="#EEECC2"/>
<path transform="translate(584,1596)" d="m0 0h7l16 8 13 9 10 9 2 7-6-1-15-11-17-9-6-1-8 16-3 9-5 5-8 9-6 9-1 5 5 8 13 10 16 8 1 5-4 2-9-4-13-8-10-8-14-8-3-3 1-6 4-6 9-11 10-15 6-11 8-11z" fill="#EEECC2"/>
<path transform="translate(880,1713)" d="m0 0 4 1 5 5 8 10 16 23 14 19 5 3 2-19 3-25 3-6 5-2 2 1v16l-7 46-1 12-2 3-5-1-6-7-10-15-13-17-11-16-13-17-1-1v-7z" fill="#EEECC2"/>
<path transform="translate(1265,1660)" d="m0 0h7l1 5-5 6-15 8-7 3 5 15 11 27 9 22 1 9-8 1-5-3-7-14-11-29-8-22-1-3-11 1-18 2v-3l20-8 25-9z" fill="#EEECC3"/>
<path transform="translate(1653,1176)" d="m0 0 4 1 3 13h15l34 10 42 13 1 1-1 10-2 5-7-1-16-6-56-17-15-6-7-7v-9l4-6z" fill="#EEECC3"/>
<path transform="translate(359,680)" d="m0 0 3 2-3 10-11 22-4 7-3 9-3 2-26-11-17-8-19-10-11-7-3-6 1-5 4-1 20 9 42 21 8 3 3-9 8-17 9-10z" fill="#EEECC3"/>
<path transform="translate(1695,1057)" d="m0 0h57l17 4 9 4 1 1v8l-1 1h-54l-21-1-8-1-2-2-1-8 2-5z" fill="#EEECC2"/>
<path transform="translate(1150,1697)" d="m0 0h9l5 19 12 47 2 8 19-3 10-2 4 3-1 4-7 3-11 2-22 1-4-4-5-12-6-21-8-32-2-7 1-5z" fill="#EEECC3"/>
<path transform="translate(1585,1391)" d="m0 0 6 2 10 6 15 13 14 11 15 14 3 5v8l-6 10-8 9-7 3-4-1 1-5 11-16 1-6-5-5-13-10-14-10-13-11-7-8v-7z" fill="#EEECC3"/>
<path transform="translate(713,265)" d="m0 0 4 2 5 6 9 20 12 32 4 14v11l-3 1-5-3-5-8-8-19-11-33-3-16v-6z" fill="#EEECC3"/>
<path transform="translate(1445,1549)" d="m0 0h6l6 4 7 7 9 11 14 18 11 14 5 7v4l-7 1-9-6-8-9-12-16-8-10-9-10-8-10 1-4z" fill="#EEECC3"/>
<path transform="translate(457,1474)" d="m0 0 4 2 1 4-3 7-9 10-13 11-19 14-16 12-7 1-1-1v-5l8-8 16-12 12-11 6-5 7-8 10-9z" fill="#EEECC3"/>
<path transform="translate(1706,688)" d="m0 0h7l1 4-6 7-23 12-25 12-10 3-4-1 1-6 5-5 23-12z" fill="#EEECC2"/>
<path transform="translate(877,1728)" d="m0 0 2 3v34l-3 1-6-3-2-8v-12l4-9z" fill="#EEECC3"/>
<path transform="translate(1520,1577)" d="m0 0 5 2 5 1 2-1 2 6v6l-6 1-5-6-3-6z" fill="#FEFEFE"/>
<path transform="translate(264,684)" d="m0 0 6 1-2 1 2 8h2l1 6-5-2-5-5-1-6z" fill="#FDFDFB"/>
<path transform="translate(292,1267)" d="m0 0 6 1 7 6 1 4-2 1-9-6-3-4z" fill="#EEECC5"/>
<path transform="translate(1480,1600)" d="m0 0 4 1v2h2v2l4 2 4 4 6 1 1 3-7-1-8-6z" fill="#FDFDFC"/>
<path transform="translate(205,1087)" d="m0 0 5 4 1 6 3 1-2 1-11-6 2-4z" fill="#FDFDFD"/>
<path transform="translate(1688,903)" d="m0 0 5 1 3 4-1 3-7-3-1-3z" fill="#FEFEFE"/>
<path transform="translate(583,1638)" d="m0 0 7 2 2 3v3l-5-2-4-4z" fill="#EEECC2"/>
<path transform="translate(1109,301)" d="m0 0h3v2h2v2l3 1 2 5-4-1-6-8z" fill="#FDFDFA"/>
<path transform="translate(713,265)" d="m0 0 4 2 1 3-4 1-1 3-1-2v-6z" fill="#FAFAF2"/>
<path transform="translate(1477,456)" d="m0 0 3 1-1 4h-2z" fill="#EEECC2"/>
<path transform="translate(1477,462)" d="m0 0 2 1v5h-2z" fill="#EEECC2"/>
</svg>
